<mxfile host="app.diagrams.net" modified="2024-01-13T06:52:26.837Z" agent="Mozilla/5.0 (Windows NT 10.0; Win64; x64) AppleWebKit/537.36 (KHTML, like Gecko) Chrome/120.0.0.0 Safari/537.36" etag="kBHAwqZu_Yj5OQrnThPe" version="22.1.18" type="github">
  <diagram id="C5RBs43oDa-KdzZeNtuy" name="Page-1">
    <mxGraphModel dx="1434" dy="756" grid="1" gridSize="10" guides="1" tooltips="1" connect="1" arrows="1" fold="1" page="1" pageScale="1" pageWidth="827" pageHeight="1169" math="0" shadow="0">
      <root>
        <mxCell id="WIyWlLk6GJQsqaUBKTNV-0" />
        <mxCell id="WIyWlLk6GJQsqaUBKTNV-1" parent="WIyWlLk6GJQsqaUBKTNV-0" />
        <mxCell id="ji-5gTpAB7tLM8CSAKNQ-0" value="业务流程" style="swimlane;childLayout=stackLayout;resizeParent=1;resizeParentMax=0;startSize=20;html=1;fillStyle=auto;fillColor=#1ba1e2;fontColor=#ffffff;strokeColor=#006EAF;" vertex="1" parent="WIyWlLk6GJQsqaUBKTNV-1">
          <mxGeometry x="30" y="90" width="910" height="565" as="geometry">
            <mxRectangle x="160" y="95" width="70" height="30" as="alternateBounds" />
          </mxGeometry>
        </mxCell>
        <mxCell id="ji-5gTpAB7tLM8CSAKNQ-2" value="交易服务" style="swimlane;startSize=20;html=1;direction=east;" vertex="1" parent="ji-5gTpAB7tLM8CSAKNQ-0">
          <mxGeometry y="20" width="240" height="545" as="geometry" />
        </mxCell>
        <mxCell id="ji-5gTpAB7tLM8CSAKNQ-8" value="" style="edgeStyle=orthogonalEdgeStyle;rounded=0;orthogonalLoop=1;jettySize=auto;html=1;" edge="1" parent="ji-5gTpAB7tLM8CSAKNQ-2" target="ji-5gTpAB7tLM8CSAKNQ-7">
          <mxGeometry relative="1" as="geometry">
            <mxPoint x="120" y="110" as="sourcePoint" />
          </mxGeometry>
        </mxCell>
        <mxCell id="ji-5gTpAB7tLM8CSAKNQ-10" value="" style="edgeStyle=orthogonalEdgeStyle;rounded=0;orthogonalLoop=1;jettySize=auto;html=1;" edge="1" parent="ji-5gTpAB7tLM8CSAKNQ-2" source="ji-5gTpAB7tLM8CSAKNQ-7" target="ji-5gTpAB7tLM8CSAKNQ-9">
          <mxGeometry relative="1" as="geometry" />
        </mxCell>
        <mxCell id="ji-5gTpAB7tLM8CSAKNQ-7" value="购买/报名课程" style="whiteSpace=wrap;html=1;strokeWidth=2;" vertex="1" parent="ji-5gTpAB7tLM8CSAKNQ-2">
          <mxGeometry x="60" y="190" width="120" height="60" as="geometry" />
        </mxCell>
        <mxCell id="ji-5gTpAB7tLM8CSAKNQ-12" value="" style="edgeStyle=orthogonalEdgeStyle;rounded=0;orthogonalLoop=1;jettySize=auto;html=1;" edge="1" parent="ji-5gTpAB7tLM8CSAKNQ-2" source="ji-5gTpAB7tLM8CSAKNQ-9" target="ji-5gTpAB7tLM8CSAKNQ-11">
          <mxGeometry relative="1" as="geometry" />
        </mxCell>
        <mxCell id="ji-5gTpAB7tLM8CSAKNQ-9" value="支付" style="whiteSpace=wrap;html=1;strokeWidth=2;" vertex="1" parent="ji-5gTpAB7tLM8CSAKNQ-2">
          <mxGeometry x="60" y="330" width="120" height="60" as="geometry" />
        </mxCell>
        <mxCell id="ji-5gTpAB7tLM8CSAKNQ-11" value="结束" style="ellipse;whiteSpace=wrap;html=1;strokeWidth=2;" vertex="1" parent="ji-5gTpAB7tLM8CSAKNQ-2">
          <mxGeometry x="80" y="460" width="80" height="80" as="geometry" />
        </mxCell>
        <mxCell id="ji-5gTpAB7tLM8CSAKNQ-13" value="开始" style="ellipse;whiteSpace=wrap;html=1;strokeWidth=2;" vertex="1" parent="ji-5gTpAB7tLM8CSAKNQ-2">
          <mxGeometry x="80" y="40" width="80" height="80" as="geometry" />
        </mxCell>
        <mxCell id="ji-5gTpAB7tLM8CSAKNQ-4" value="学习服务" style="swimlane;startSize=20;html=1;" vertex="1" parent="ji-5gTpAB7tLM8CSAKNQ-0">
          <mxGeometry x="240" y="20" width="670" height="545" as="geometry">
            <mxRectangle x="240" y="20" width="40" height="460" as="alternateBounds" />
          </mxGeometry>
        </mxCell>
        <mxCell id="ji-5gTpAB7tLM8CSAKNQ-17" value="" style="edgeStyle=orthogonalEdgeStyle;rounded=0;orthogonalLoop=1;jettySize=auto;html=1;" edge="1" parent="ji-5gTpAB7tLM8CSAKNQ-4" source="ji-5gTpAB7tLM8CSAKNQ-15" target="ji-5gTpAB7tLM8CSAKNQ-16">
          <mxGeometry relative="1" as="geometry" />
        </mxCell>
        <mxCell id="ji-5gTpAB7tLM8CSAKNQ-15" value="加入课程表" style="whiteSpace=wrap;html=1;strokeWidth=2;" vertex="1" parent="ji-5gTpAB7tLM8CSAKNQ-4">
          <mxGeometry x="40" y="90" width="120" height="60" as="geometry" />
        </mxCell>
        <mxCell id="ji-5gTpAB7tLM8CSAKNQ-19" value="" style="edgeStyle=orthogonalEdgeStyle;rounded=0;orthogonalLoop=1;jettySize=auto;html=1;" edge="1" parent="ji-5gTpAB7tLM8CSAKNQ-4" source="ji-5gTpAB7tLM8CSAKNQ-16" target="ji-5gTpAB7tLM8CSAKNQ-18">
          <mxGeometry relative="1" as="geometry" />
        </mxCell>
        <mxCell id="ji-5gTpAB7tLM8CSAKNQ-20" value="Y" style="edgeLabel;html=1;align=center;verticalAlign=middle;resizable=0;points=[];" vertex="1" connectable="0" parent="ji-5gTpAB7tLM8CSAKNQ-19">
          <mxGeometry x="-0.1" y="-1" relative="1" as="geometry">
            <mxPoint as="offset" />
          </mxGeometry>
        </mxCell>
        <mxCell id="ji-5gTpAB7tLM8CSAKNQ-26" style="edgeStyle=orthogonalEdgeStyle;rounded=0;orthogonalLoop=1;jettySize=auto;html=1;entryX=0;entryY=0.5;entryDx=0;entryDy=0;" edge="1" parent="ji-5gTpAB7tLM8CSAKNQ-4" source="ji-5gTpAB7tLM8CSAKNQ-16" target="ji-5gTpAB7tLM8CSAKNQ-23">
          <mxGeometry relative="1" as="geometry">
            <Array as="points">
              <mxPoint x="100" y="390" />
            </Array>
          </mxGeometry>
        </mxCell>
        <mxCell id="ji-5gTpAB7tLM8CSAKNQ-28" value="N" style="edgeLabel;html=1;align=center;verticalAlign=middle;resizable=0;points=[];" vertex="1" connectable="0" parent="ji-5gTpAB7tLM8CSAKNQ-26">
          <mxGeometry x="-0.5158" y="-2" relative="1" as="geometry">
            <mxPoint as="offset" />
          </mxGeometry>
        </mxCell>
        <mxCell id="ji-5gTpAB7tLM8CSAKNQ-16" value="是否有学习计划" style="rhombus;whiteSpace=wrap;html=1;strokeWidth=2;" vertex="1" parent="ji-5gTpAB7tLM8CSAKNQ-4">
          <mxGeometry x="60" y="220" width="80" height="80" as="geometry" />
        </mxCell>
        <mxCell id="ji-5gTpAB7tLM8CSAKNQ-30" value="" style="edgeStyle=orthogonalEdgeStyle;rounded=0;orthogonalLoop=1;jettySize=auto;html=1;" edge="1" parent="ji-5gTpAB7tLM8CSAKNQ-4" source="ji-5gTpAB7tLM8CSAKNQ-18" target="ji-5gTpAB7tLM8CSAKNQ-29">
          <mxGeometry relative="1" as="geometry" />
        </mxCell>
        <mxCell id="ji-5gTpAB7tLM8CSAKNQ-18" value="开始/继续学习" style="whiteSpace=wrap;html=1;strokeWidth=2;" vertex="1" parent="ji-5gTpAB7tLM8CSAKNQ-4">
          <mxGeometry x="200" y="230" width="120" height="60" as="geometry" />
        </mxCell>
        <mxCell id="ji-5gTpAB7tLM8CSAKNQ-27" value="" style="edgeStyle=orthogonalEdgeStyle;rounded=0;orthogonalLoop=1;jettySize=auto;html=1;" edge="1" parent="ji-5gTpAB7tLM8CSAKNQ-4" source="ji-5gTpAB7tLM8CSAKNQ-23" target="ji-5gTpAB7tLM8CSAKNQ-18">
          <mxGeometry relative="1" as="geometry" />
        </mxCell>
        <mxCell id="ji-5gTpAB7tLM8CSAKNQ-23" value="创建学习计划" style="whiteSpace=wrap;html=1;strokeWidth=2;" vertex="1" parent="ji-5gTpAB7tLM8CSAKNQ-4">
          <mxGeometry x="200" y="360" width="120" height="60" as="geometry" />
        </mxCell>
        <mxCell id="ji-5gTpAB7tLM8CSAKNQ-34" value="" style="edgeStyle=orthogonalEdgeStyle;rounded=0;orthogonalLoop=1;jettySize=auto;html=1;" edge="1" parent="ji-5gTpAB7tLM8CSAKNQ-4" source="ji-5gTpAB7tLM8CSAKNQ-29" target="ji-5gTpAB7tLM8CSAKNQ-33">
          <mxGeometry relative="1" as="geometry" />
        </mxCell>
        <mxCell id="ji-5gTpAB7tLM8CSAKNQ-39" value="Y" style="edgeLabel;html=1;align=center;verticalAlign=middle;resizable=0;points=[];" vertex="1" connectable="0" parent="ji-5gTpAB7tLM8CSAKNQ-34">
          <mxGeometry x="-0.48" y="1" relative="1" as="geometry">
            <mxPoint as="offset" />
          </mxGeometry>
        </mxCell>
        <mxCell id="ji-5gTpAB7tLM8CSAKNQ-36" value="" style="edgeStyle=orthogonalEdgeStyle;rounded=0;orthogonalLoop=1;jettySize=auto;html=1;" edge="1" parent="ji-5gTpAB7tLM8CSAKNQ-4" source="ji-5gTpAB7tLM8CSAKNQ-29" target="ji-5gTpAB7tLM8CSAKNQ-35">
          <mxGeometry relative="1" as="geometry" />
        </mxCell>
        <mxCell id="ji-5gTpAB7tLM8CSAKNQ-40" value="N" style="edgeLabel;html=1;align=center;verticalAlign=middle;resizable=0;points=[];" vertex="1" connectable="0" parent="ji-5gTpAB7tLM8CSAKNQ-36">
          <mxGeometry x="-0.175" y="-1" relative="1" as="geometry">
            <mxPoint as="offset" />
          </mxGeometry>
        </mxCell>
        <mxCell id="ji-5gTpAB7tLM8CSAKNQ-29" value="是否过期" style="rhombus;whiteSpace=wrap;html=1;strokeWidth=2;" vertex="1" parent="ji-5gTpAB7tLM8CSAKNQ-4">
          <mxGeometry x="420" y="220" width="80" height="80" as="geometry" />
        </mxCell>
        <mxCell id="ji-5gTpAB7tLM8CSAKNQ-33" value="结束" style="ellipse;whiteSpace=wrap;html=1;strokeWidth=2;" vertex="1" parent="ji-5gTpAB7tLM8CSAKNQ-4">
          <mxGeometry x="420" y="350" width="80" height="80" as="geometry" />
        </mxCell>
        <mxCell id="ji-5gTpAB7tLM8CSAKNQ-37" style="edgeStyle=orthogonalEdgeStyle;rounded=0;orthogonalLoop=1;jettySize=auto;html=1;endArrow=none;endFill=0;" edge="1" parent="ji-5gTpAB7tLM8CSAKNQ-4" source="ji-5gTpAB7tLM8CSAKNQ-35">
          <mxGeometry relative="1" as="geometry">
            <mxPoint x="460" y="330" as="targetPoint" />
            <Array as="points">
              <mxPoint x="620" y="330" />
            </Array>
          </mxGeometry>
        </mxCell>
        <mxCell id="ji-5gTpAB7tLM8CSAKNQ-38" value="Y" style="edgeLabel;html=1;align=center;verticalAlign=middle;resizable=0;points=[];" vertex="1" connectable="0" parent="ji-5gTpAB7tLM8CSAKNQ-37">
          <mxGeometry x="-0.8105" relative="1" as="geometry">
            <mxPoint as="offset" />
          </mxGeometry>
        </mxCell>
        <mxCell id="ji-5gTpAB7tLM8CSAKNQ-35" value="是否学完" style="rhombus;whiteSpace=wrap;html=1;strokeWidth=2;" vertex="1" parent="ji-5gTpAB7tLM8CSAKNQ-4">
          <mxGeometry x="580" y="220" width="80" height="80" as="geometry" />
        </mxCell>
        <mxCell id="ji-5gTpAB7tLM8CSAKNQ-41" value="mq异步调用" style="text;html=1;strokeColor=none;fillColor=none;align=center;verticalAlign=middle;whiteSpace=wrap;rounded=0;" vertex="1" parent="ji-5gTpAB7tLM8CSAKNQ-4">
          <mxGeometry y="210" width="60" height="30" as="geometry" />
        </mxCell>
        <mxCell id="ji-5gTpAB7tLM8CSAKNQ-14" value="" style="endArrow=classic;dashed=1;html=1;rounded=0;exitX=1;exitY=0.5;exitDx=0;exitDy=0;edgeStyle=entityRelationEdgeStyle;endFill=1;" edge="1" parent="WIyWlLk6GJQsqaUBKTNV-1" source="ji-5gTpAB7tLM8CSAKNQ-9">
          <mxGeometry width="50" height="50" relative="1" as="geometry">
            <mxPoint x="390" y="480" as="sourcePoint" />
            <mxPoint x="310" y="230" as="targetPoint" />
          </mxGeometry>
        </mxCell>
      </root>
    </mxGraphModel>
  </diagram>
</mxfile>
